<?xml version="1.0" encoding="UTF-8"?>
<svg version="1.1" xmlns="http://www.w3.org/2000/svg" width="360" height="360">
<path d="M0 0 C118.8 0 237.6 0 360 0 C360 118.8 360 237.6 360 360 C241.2 360 122.4 360 0 360 C0 241.2 0 122.4 0 0 Z " fill="#FEFEFE" transform="translate(0,0)"/>
<path d="M0 0 C4.83332936 3.65466148 9.11271382 7.90965079 12.6875 12.8125 C12.6875 13.4725 12.6875 14.1325 12.6875 14.8125 C13.55890625 14.74289063 14.4303125 14.67328125 15.328125 14.6015625 C25.92690658 14.1197997 32.95542548 16.30074719 41.29296875 22.86328125 C49.97834291 30.84022358 51.87288281 38.52085621 52.4375 49.9375 C52.54971535 52.89635483 52.62670797 55.85192834 52.6875 58.8125 C53.31382324 58.93616943 53.94014648 59.05983887 54.58544922 59.18725586 C58.36687786 60.31202226 59.51853519 63.8523959 61.359375 67.125 C65.95488569 76.42415104 65.5075081 85.56450557 62.6015625 95.30078125 C59.63821321 103.44365985 52.99567625 109.4537091 45.6875 113.8125 C39.20574915 116.69657103 33.16343727 117.25023765 26.14160156 117.21655273 C24.62013519 117.22684761 24.62013519 117.22684761 23.06793213 117.23735046 C19.73785116 117.25554728 16.4082447 117.25178998 13.078125 117.24609375 C10.74558358 117.2506599 8.41304351 117.25596677 6.08050537 117.26197815 C1.19847134 117.27089606 -3.68339901 117.26850217 -8.56542969 117.25854492 C-14.7935176 117.24707459 -21.02103689 117.26724445 -27.24905014 117.29646206 C-32.06548602 117.31489327 -36.88178749 117.31451751 -41.69824982 117.30882454 C-43.99295091 117.30867208 -46.28766154 117.31465362 -48.5823288 117.32711601 C-77.04089177 117.45988052 -77.04089177 117.45988052 -89.41015625 108.08203125 C-91.39257791 106.75905991 -92.98454659 106.24283437 -95.3125 105.8125 C-94.6525 107.1325 -93.9925 108.4525 -93.3125 109.8125 C-94.3025 109.8125 -95.2925 109.8125 -96.3125 109.8125 C-96.3125 109.1525 -96.3125 108.4925 -96.3125 107.8125 C-97.05371094 107.55855469 -97.79492188 107.30460937 -98.55859375 107.04296875 C-105.37987906 103.99516042 -110.23302428 97.44521694 -113.3125 90.8125 C-116.7918828 80.3743516 -116.14421204 70.71675708 -111.3125 60.8125 C-107.6281071 54.33961521 -102.78252265 50.38715967 -96.3125 46.8125 C-95.69761719 46.47089844 -95.08273438 46.12929687 -94.44921875 45.77734375 C-88.0891834 42.84927608 -81.15977069 43.55284226 -74.3125 43.8125 C-74.02246094 43.20664063 -73.73242188 42.60078125 -73.43359375 41.9765625 C-71.38943083 38.03068703 -69.00289075 35.2727605 -65.3125 32.8125 C-64.02462977 29.62671574 -63.3125 27.2573059 -63.3125 23.8125 C-63.6425 24.4725 -63.9725 25.1325 -64.3125 25.8125 C-65.3025 25.8125 -66.2925 25.8125 -67.3125 25.8125 C-67.9725 27.1325 -68.6325 28.4525 -69.3125 29.8125 C-67.29445202 18.25458885 -62.01968652 9.73792674 -53.3125 1.8125 C-49.79705375 -0.59867062 -46.20554121 -2.46295104 -42.3125 -4.1875 C-41.23742187 -4.69603516 -41.23742187 -4.69603516 -40.140625 -5.21484375 C-27.17840642 -10.50206448 -11.42171235 -7.48679316 0 0 Z " fill="#FCFDFE" transform="translate(205.3125,125.1875)"/>
<path d="M0 0 C11.35434563 8.52129253 18.06422872 17.37318045 21.00390625 31.50390625 C20.50890625 32.49390625 20.50890625 32.49390625 20.00390625 33.50390625 C19.71257812 32.93542969 19.42125 32.36695313 19.12109375 31.78125 C13.80021439 21.75858731 8.50617869 16.2315153 -1.99609375 11.50390625 C-10.0270844 9.15935359 -21.51757098 8.90380137 -29.24609375 12.19140625 C-32.87816458 14.18226629 -35.89329297 16.7794958 -38.99609375 19.50390625 C-39.65609375 19.50390625 -40.31609375 19.50390625 -40.99609375 19.50390625 C-41.24359375 20.01953125 -41.49109375 20.53515625 -41.74609375 21.06640625 C-42.80135957 23.1241746 -43.90765401 25.12417848 -45.05859375 27.12890625 C-46.07512619 28.89964017 -47.08298512 30.677689 -47.99609375 32.50390625 C-50.82680652 31.9892312 -53.44768693 31.35337519 -56.18359375 30.44140625 C-64.7995495 28.32272861 -72.22446568 29.08909904 -79.99609375 33.50390625 C-85.54295326 37.59776432 -89.31406255 42.79557004 -90.99609375 49.50390625 C-92.40982455 60.89377513 -89.88809519 68.57057886 -82.99609375 77.50390625 C-89.75887893 75.18691724 -94.66088875 70.04862226 -98.37109375 64.00390625 C-102.62112546 54.8499918 -103.58044557 45.47120631 -100.37109375 35.81640625 C-96.67482145 26.77534995 -91.52866581 21.2181156 -82.99609375 16.50390625 C-82.38121094 16.16230469 -81.76632813 15.82070312 -81.1328125 15.46875 C-74.77277715 12.54068233 -67.84336444 13.24424851 -60.99609375 13.50390625 C-60.74859375 12.94703125 -60.50109375 12.39015625 -60.24609375 11.81640625 C-55.45618456 2.95507425 -46.25072741 -2.16442563 -36.99609375 -5.49609375 C-24.57618997 -8.60654584 -10.6689077 -7.22037188 0 0 Z " fill="#047AC2" transform="translate(191.99609375,155.49609375)"/>
<path d="M0 0 C5.95376001 3.90261708 11.04908171 8.73059286 15.25 14.4921875 C15.25 15.1521875 15.25 15.8121875 15.25 16.4921875 C16.12140625 16.42257813 16.9928125 16.35296875 17.890625 16.28125 C28.48940658 15.7994872 35.51792548 17.98043469 43.85546875 24.54296875 C51.05609439 31.15626766 54.2602081 37.54708707 54.71630859 47.34155273 C54.89097272 58.16693169 52.63559526 66.87048688 45.06640625 74.83203125 C42.60954556 77.07754908 40.12091624 78.81165117 37.25 80.4921875 C36.59 80.1621875 35.93 79.8321875 35.25 79.4921875 C35.65992188 78.98429687 36.06984375 78.47640625 36.4921875 77.953125 C37.03101563 77.26476562 37.56984375 76.57640625 38.125 75.8671875 C38.92550781 74.85785156 38.92550781 74.85785156 39.7421875 73.828125 C44.27953552 66.798762 44.35756494 58.15100668 42.78515625 50.1171875 C40.66152401 43.68346142 36.425735 38.57771182 30.625 35.1171875 C25.80713983 32.79747705 22.16759506 32.33564181 16.8125 32.3046875 C15.70003906 32.29050781 14.58757812 32.27632812 13.44140625 32.26171875 C10.25417305 32.49188614 8.16239645 33.26207681 5.25 34.4921875 C3.93 34.4921875 2.61 34.4921875 1.25 34.4921875 C0.981875 33.863125 0.71375 33.2340625 0.4375 32.5859375 C-4.4042609 22.01051237 -10.21204265 16.51996908 -21.11328125 12.40234375 C-30.82379961 9.05041667 -40.43073611 10.0701588 -49.82421875 14.32421875 C-56.74317528 18.52050273 -62.32673648 24.17885181 -65.75 31.4921875 C-67.28029756 26.90129481 -65.21701775 23.93539384 -63.3359375 19.6328125 C-57.16861616 7.4196934 -47.24575867 -0.35724756 -34.3828125 -4.625 C-22.68409924 -7.46791311 -10.52346955 -5.76997052 0 0 Z " fill="#1294D4" transform="translate(202.75,123.5078125)"/>
<path d="M0 0 C5.61332198 4.57381791 8.92673359 11.93903679 10 19 C10.90733691 28.24785699 8.9094784 37.70005609 3 45 C-3.44150917 52.13788854 -10.73652381 57.18055512 -20.47185516 58.27886772 C-23.16743112 58.39402175 -25.84790065 58.41699548 -28.54589844 58.40405273 C-30.06736481 58.41434761 -30.06736481 58.41434761 -31.61956787 58.42485046 C-34.94964884 58.44304728 -38.2792553 58.43928998 -41.609375 58.43359375 C-43.94191642 58.4381599 -46.27445649 58.44346677 -48.60699463 58.44947815 C-53.48902866 58.45839606 -58.37089901 58.45600217 -63.25292969 58.44604492 C-69.4810176 58.43457459 -75.70853689 58.45474445 -81.93655014 58.48396206 C-86.75298602 58.50239327 -91.56928749 58.50201751 -96.38574982 58.49632454 C-98.68045091 58.49617208 -100.97516154 58.50215362 -103.2698288 58.51461601 C-122.45654027 58.6041256 -136.85797551 57.19697838 -151.0625 43.125 C-152.38270838 41.75739952 -153.69807971 40.38502159 -155 39 C-154.67 38.34 -154.34 37.68 -154 37 C-153.52691406 37.38671875 -153.05382812 37.7734375 -152.56640625 38.171875 C-144.93236339 44.18386977 -137.20714802 48.08374418 -127.34141541 48.15390015 C-126.43474121 48.16250061 -125.52806702 48.17110107 -124.59391785 48.17996216 C-123.12031548 48.18635208 -123.12031548 48.18635208 -121.61694336 48.19287109 C-120.57234955 48.20104858 -119.52775574 48.20922607 -118.45150757 48.21765137 C-114.99762536 48.24244329 -111.54378416 48.25900754 -108.08984375 48.2734375 C-106.31536456 48.28142302 -106.31536456 48.28142302 -104.50503731 48.28956985 C-98.24075087 48.31627726 -91.97648418 48.33565804 -85.7121582 48.35009766 C-80.54140478 48.36342267 -75.3710473 48.39125324 -70.20043945 48.43212891 C-63.94412688 48.48158098 -57.68817271 48.50623441 -51.43167305 48.51332474 C-49.05517221 48.52001575 -46.67867869 48.53518127 -44.30228996 48.55921555 C-23.87749015 48.97954652 -23.87749015 48.97954652 -6.5 39.25 C-2.85965642 35.26908374 -0.84394875 31.02137456 1 26 C1.33 25.34 1.66 24.68 2 24 C2.12552999 21.25877529 2.18518261 18.55397601 2.1875 15.8125 C2.19974609 15.06935547 2.21199219 14.32621094 2.22460938 13.56054688 C2.23749408 8.66006261 1.55781197 4.64880647 0 0 Z " fill="#61BCEE" transform="translate(260,184)"/>
<path d="M0 0 C5.61332198 4.57381791 8.92673359 11.93903679 10 19 C10.90733691 28.24785699 8.9094784 37.70005609 3 45 C0.6875 47.5625 0.6875 47.5625 -2 50 C-2.49113281 50.46921875 -2.98226562 50.9384375 -3.48828125 51.421875 C-7.8104209 55.09414639 -11.47549289 55.55808568 -17.05859375 55.56640625 C-19.83762702 55.03126704 -21.17027958 54.38742471 -23.55334473 52.99871826 C-28.40994484 50.52972574 -32.71579986 50.42428447 -38.08789062 50.45410156 C-39.55267853 50.43859505 -39.55267853 50.43859505 -41.04705811 50.42277527 C-44.25029259 50.39345724 -47.45289217 50.39185039 -50.65625 50.390625 C-52.886853 50.37563597 -55.11744493 50.35890731 -57.34802246 50.34051514 C-63.20052616 50.29691091 -69.05288014 50.27685773 -74.90551758 50.26177979 C-80.88501817 50.24218385 -86.86435769 50.20021656 -92.84375 50.16015625 C-104.56245023 50.08492903 -116.28111428 50.0345921 -128 50 C-128 49.67 -128 49.34 -128 49 C-126.71119934 48.99857498 -125.42239868 48.99714996 -124.09454346 48.99568176 C-111.91314156 48.97896881 -99.73207189 48.93606375 -87.5508461 48.86790943 C-81.28922034 48.83370654 -75.02783685 48.8085398 -68.76611328 48.80444336 C-62.71638254 48.80014616 -56.66719771 48.77156473 -50.61763763 48.72656822 C-48.31656837 48.71363875 -46.01543362 48.70926928 -43.71433258 48.71384621 C-23.60261169 48.91796485 -23.60261169 48.91796485 -6.5 39.25 C-2.85965642 35.26908374 -0.84394875 31.02137456 1 26 C1.33 25.34 1.66 24.68 2 24 C2.12552999 21.25877529 2.18518261 18.55397601 2.1875 15.8125 C2.19974609 15.06935547 2.21199219 14.32621094 2.22460938 13.56054688 C2.23749408 8.66006261 1.55781197 4.64880647 0 0 Z " fill="#82C3E5" transform="translate(260,184)"/>
<path d="M0 0 C5.61332198 4.57381791 8.92673359 11.93903679 10 19 C10.90515757 28.22564444 8.94397266 37.75578333 3 45 C2.01 45.66 1.02 46.32 0 47 C0.33 46.05125 0.66 45.1025 1 44.125 C2.10159191 41.22937548 2.10159191 41.22937548 2 39 C1.34 39 0.68 39 0 39 C-0.495 37.515 -0.495 37.515 -1 36 C-1.99 36.66 -2.98 37.32 -4 38 C-2.1883537 33.31991373 -2.1883537 33.31991373 -0.9765625 31.26171875 C1.91648598 25.97831461 2.37372572 21.28509491 2.375 15.375 C2.3764502 14.65860352 2.37790039 13.94220703 2.37939453 13.20410156 C2.28253637 8.48308266 1.47166529 4.48563579 0 0 Z " fill="#62B8E0" transform="translate(260,184)"/>
<path d="M0 0 C8.2320531 3.17819772 15.14110232 11.28220464 19 19 C20.62123993 23.26435231 22.06996727 27.52942887 23 32 C22.505 32.99 22.505 32.99 22 34 C21.70867187 33.43152344 21.41734375 32.86304688 21.1171875 32.27734375 C15.64846073 21.97618861 9.54968115 15.18983125 -1.8828125 11.37109375 C-4.99374449 10.82581969 -8.09952536 10.64169743 -11.25 10.4375 C-12.51328125 10.35371094 -13.7765625 10.26992187 -15.078125 10.18359375 C-16.04234375 10.12300781 -17.0065625 10.06242188 -18 10 C-18 9.67 -18 9.34 -18 9 C-13.71 9 -9.42 9 -5 9 C-5.33 7.68 -5.66 6.36 -6 5 C-4.68 5 -3.36 5 -2 5 C-2 3.68 -2 2.36 -2 1 C-1.34 0.67 -0.68 0.34 0 0 Z " fill="#1575B9" transform="translate(190,155)"/>
<path d="M0 0 C2.97 0.495 2.97 0.495 6 1 C2.36774435 3.42150376 -0.10095154 4.12449305 -4.36474609 4.13371277 C-5.70227936 4.14011024 -5.70227936 4.14011024 -7.0668335 4.14663696 C-8.53035248 4.14595718 -8.53035248 4.14595718 -10.0234375 4.14526367 C-11.05293518 4.14862228 -12.08243286 4.1519809 -13.14312744 4.15544128 C-16.55376382 4.16495775 -19.96435116 4.16689462 -23.375 4.16796875 C-25.74007182 4.17118038 -28.10514344 4.17454438 -30.47021484 4.17805481 C-35.43001771 4.18404749 -40.38980314 4.18589452 -45.34960938 4.18530273 C-51.71544912 4.185201 -58.08117762 4.19886448 -64.44699097 4.21607494 C-69.33162961 4.22717349 -74.21624115 4.22922262 -79.10089111 4.22869301 C-81.44851058 4.22987594 -83.79613069 4.23431511 -86.14373779 4.24202538 C-89.42142624 4.25178378 -92.69887042 4.24896383 -95.9765625 4.24291992 C-96.95224182 4.24853943 -97.92792114 4.25415894 -98.9331665 4.25994873 C-100.27069977 4.253657 -100.27069977 4.253657 -101.63525391 4.24723816 C-102.79778183 4.24805531 -102.79778183 4.24805531 -103.98379517 4.24888897 C-106 4 -106 4 -109 2 C-73.03 2 -37.06 2 0 2 C0 1.34 0 0.68 0 0 Z " fill="#5AB7E2" transform="translate(242,238)"/>
<path d="M0 0 C34.32 0 68.64 0 104 0 C104 0.66 104 1.32 104 2 C71.33 2 38.66 2 5 2 C5 2.66 5 3.32 5 4 C1.125 2.25 1.125 2.25 0 0 Z " fill="#6EBBE8" transform="translate(128,237)"/>
<path d="M0 0 C0.99 1.32 1.98 2.64 3 4 C2.01 4.495 2.01 4.495 1 5 C1 5.66 1 6.32 1 7 C1.66 7 2.32 7 3 7 C3.06058594 8.24136719 3.12117188 9.48273438 3.18359375 10.76171875 C3.26803623 12.40365577 3.35268236 14.04558232 3.4375 15.6875 C3.49647461 16.91243164 3.49647461 16.91243164 3.55664062 18.16210938 C3.76898003 22.19655811 4.04447922 26.05747309 5 30 C4.01 29.67 3.02 29.34 2 29 C0.25327015 25.5065403 -1 22.93154432 -1 19 C-1.66 19 -2.32 19 -3 19 C-4.13016601 13.97703996 -3.77916092 10.02125926 -3 5 C-2.34 5 -1.68 5 -1 5 C-0.67 3.35 -0.34 1.7 0 0 Z M2 1 C3.32 1 4.64 1 6 1 C6 1.66 6 2.32 6 3 C4.68 2.34 3.36 1.68 2 1 Z " fill="#037CC7" transform="translate(96,195)"/>
<path d="M0 0 C0.33 0 0.66 0 1 0 C1 1.65 1 3.3 1 5 C1.66 5 2.32 5 3 5 C3.05819424 8.24992446 3.09366116 11.49971435 3.125 14.75 C3.14175781 15.67039063 3.15851563 16.59078125 3.17578125 17.5390625 C3.18222656 18.42851562 3.18867188 19.31796875 3.1953125 20.234375 C3.20578613 21.05131836 3.21625977 21.86826172 3.22705078 22.70996094 C2.97829916 25.21887518 2.25700129 26.83395625 1 29 C0.01 29 -0.98 29 -2 29 C-2.34057669 19.18003888 -1.28846906 9.70953473 0 0 Z " fill="#69BDEE" transform="translate(265,195)"/>
<path d="M0 0 C0.33 1.32 0.66 2.64 1 4 C1.66 4 2.32 4 3 4 C3.88672454 6.4828287 4.14518218 7.62029277 3.1875 10.125 C2 12 2 12 0 14 C-5.66153846 12.52307692 -5.66153846 12.52307692 -7.375 9.875 C-7.58125 9.25625 -7.7875 8.6375 -8 8 C-7.34 7.67 -6.68 7.34 -6 7 C-5.896875 6.38125 -5.79375 5.7625 -5.6875 5.125 C-4.6946064 2.05605613 -2.77790438 1.42456635 0 0 Z " fill="#6DBFEE" transform="translate(259,219)"/>
<path d="M0 0 C0.33 0 0.66 0 1 0 C1.61953486 10.82465072 0.75655446 19.86698443 -6.375 28.4375 C-9.3128513 31.52763733 -12.32703914 33.84997413 -16 36 C-16.66 35.67 -17.32 35.34 -18 35 C-17.59007812 34.46890625 -17.18015625 33.9378125 -16.7578125 33.390625 C-16.21898437 32.68421875 -15.68015625 31.9778125 -15.125 31.25 C-14.59132812 30.55390625 -14.05765625 29.8578125 -13.5078125 29.140625 C-12.10761086 27.15277397 -11.02144735 25.20156614 -10 23 C-9.67 23.99 -9.34 24.98 -9 26 C-8.34 25.67 -7.68 25.34 -7 25 C-6.67 24.01 -6.34 23.02 -6 22 C-5.34 22 -4.68 22 -4 22 C-1.74231361 14.65896942 -0.4302337 7.6700283 0 0 Z " fill="#1788C5" transform="translate(256,168)"/>
<path d="M0 0 C0.33 0.66 0.66 1.32 1 2 C1.92039063 2.21462891 1.92039063 2.21462891 2.859375 2.43359375 C5.44744552 3.11839343 6.43692698 4.12580836 8.25 6.0625 C8.77078125 6.61035156 9.2915625 7.15820312 9.828125 7.72265625 C10.21484375 8.14417969 10.6015625 8.56570312 11 9 C10.67 9.99 10.34 10.98 10 12 C9.67 11.67 9.34 11.34 9 11 C8.01 11.495 8.01 11.495 7 12 C4.96855359 11.06553465 2.96466413 10.06775224 1 9 C1 8.34 1 7.68 1 7 C-0.65 7 -2.3 7 -4 7 C-3.6875 4.625 -3.6875 4.625 -3 2 C-2.01 1.34 -1.02 0.68 0 0 Z " fill="#0379C3" transform="translate(192,158)"/>
<path d="M0 0 C0.66 0.33 1.32 0.66 2 1 C1.67 2.32 1.34 3.64 1 5 C1.99 4.67 2.98 4.34 4 4 C4 4.66 4 5.32 4 6 C3.01 6.33 2.02 6.66 1 7 C0.34 6.67 -0.32 6.34 -1 6 C-1 5.34 -1 4.68 -1 4 C-2.65 4.66 -4.3 5.32 -6 6 C-5.34 7.98 -4.68 9.96 -4 12 C-6.55991256 12.51198251 -9.11042442 13.01797607 -11.6875 13.4375 C-14.17757117 13.83093987 -14.17757117 13.83093987 -16 16 C-15.25740925 10.98751241 -12.21569863 7.9161282 -8.2734375 4.9453125 C-6.83871094 4.04425781 -6.83871094 4.04425781 -5.375 3.125 C-4.41335937 2.50882813 -3.45171875 1.89265625 -2.4609375 1.2578125 C-1.24277344 0.63519531 -1.24277344 0.63519531 0 0 Z " fill="#0079C0" transform="translate(148,153)"/>
<path d="M0 0 C0.66 0 1.32 0 2 0 C1.67 0.99 1.34 1.98 1 3 C0.34 3 -0.32 3 -1 3 C1.40436026 6.60654039 2.94679607 6.85452932 7 8 C4.42215154 10.64752004 2.08351902 12.94432065 -1 15 C-1.99 14.67 -2.98 14.34 -4 14 C-2.35 13.01 -0.7 12.02 1 11 C-0.65 11 -2.3 11 -4 11 C-4 9 -4 9 -3 8 C-5.31 8 -7.62 8 -10 8 C-7.62630732 5.37644494 -5.03386523 3.78920257 -2 2 C-1.34 1.34 -0.68 0.68 0 0 Z " fill="#61B9E2" transform="translate(252,224)"/>
<path d="M0 0 C0.33 0 0.66 0 1 0 C1.04898438 0.91523438 1.09796875 1.83046875 1.1484375 2.7734375 C1.22320312 3.96195313 1.29796875 5.15046875 1.375 6.375 C1.44460937 7.55835938 1.51421875 8.74171875 1.5859375 9.9609375 C1.70217346 13.10562319 1.70217346 13.10562319 4 15 C4.66 15.33 5.32 15.66 6 16 C6.268125 16.556875 6.53625 17.11375 6.8125 17.6875 C8.45027346 20.87684831 10.65750026 23.28763188 13 26 C12.01 26 11.02 26 10 26 C10.66 27.32 11.32 28.64 12 30 C11.01 30 10.02 30 9 30 C7.5625 27.875 7.5625 27.875 6 25 C5.319375 24.01 4.63875 23.02 3.9375 22 C0.5336887 16.7295825 -0.24267987 12.98337278 -0.125 6.6875 C-0.10695313 5.43324219 -0.08890625 4.17898437 -0.0703125 2.88671875 C-0.03550781 1.45779297 -0.03550781 1.45779297 0 0 Z " fill="#D6EDF5" transform="translate(100,205)"/>
<path d="M0 0 C0.72445312 0.47050781 1.44890625 0.94101563 2.1953125 1.42578125 C9.40010298 6.06820817 9.40010298 6.06820817 17 10 C15.68 10.33 14.36 10.66 13 11 C15.93189994 13.39073149 18.72143288 14.84107307 22.25 16.1875 C23.14203125 16.53167969 24.0340625 16.87585938 24.953125 17.23046875 C25.96632812 17.61138672 25.96632812 17.61138672 27 18 C24.55313713 18.8826583 23.29318267 19.08949787 20.7734375 18.3203125 C13.84488382 14.86731995 8.51276466 10.40149785 3 5 C2.41089844 4.45601562 1.82179688 3.91203125 1.21484375 3.3515625 C0 2 0 2 0 0 Z " fill="#64B2DA" transform="translate(105,221)"/>
<path d="M0 0 C0.66 0 1.32 0 2 0 C1.94199219 1.11117187 1.88398437 2.22234375 1.82421875 3.3671875 C1.41109225 14.74159616 2.96175129 21.81518863 10 31 C4.70841026 29.59928507 2.22521956 26.14512755 -1 22 C-0.34 21.67 0.32 21.34 1 21 C0.67 20.01 0.34 19.02 0 18 C-0.08021999 16.59175107 -0.10765977 15.18002769 -0.09765625 13.76953125 C-0.09443359 12.96708984 -0.09121094 12.16464844 -0.08789062 11.33789062 C-0.07532227 10.08782227 -0.07532227 10.08782227 -0.0625 8.8125 C-0.05798828 7.96751953 -0.05347656 7.12253906 -0.04882812 6.25195312 C-0.03705403 4.16793845 -0.0191189 2.08396023 0 0 Z " fill="#1267A9" transform="translate(99,202)"/>
<path d="M0 0 C0.99 0.33 1.98 0.66 3 1 C2.67 2.98 2.34 4.96 2 7 C1.01 7.33 0.02 7.66 -1 8 C-1.99 7.01 -2.98 6.02 -4 5 C-3.67 6.32 -3.34 7.64 -3 9 C-1.35 9 0.3 9 2 9 C-1 11 -1 11 -3.6875 10.625 C-4.450625 10.41875 -5.21375 10.2125 -6 10 C-6 9.34 -6 8.68 -6 8 C-6.66 7.34 -7.32 6.68 -8 6 C-7.4225 5.65066406 -6.845 5.30132812 -6.25 4.94140625 C-5.5075 4.48636719 -4.765 4.03132813 -4 3.5625 C-3.2575 3.11003906 -2.515 2.65757813 -1.75 2.19140625 C-1.1725 1.79824219 -0.595 1.40507813 0 1 C0 0.67 0 0.34 0 0 Z " fill="#139ADE" transform="translate(165,120)"/>
<path d="M0 0 C0.66 0.66 1.32 1.32 2 2 C-3.445 1.505 -3.445 1.505 -9 1 C-9 1.66 -9 2.32 -9 3 C-9.825 3.12375 -10.65 3.2475 -11.5 3.375 C-15.39772067 4.07102155 -19.16739669 5.00880949 -23 6 C-16.99612454 -0.51484358 -8.37753883 -0.99241614 0 0 Z " fill="#0B6BAF" transform="translate(129,169)"/>
<path d="M0 0 C-2.31 1.32 -4.62 2.64 -7 4 C-6.67 4.99 -6.34 5.98 -6 7 C-7 8 -7 8 -9.9375 8.1875 C-13 8 -13 8 -15 6 C-13.56542672 5.0165504 -12.12722594 4.03839079 -10.6875 3.0625 C-9.88699219 2.51722656 -9.08648437 1.97195312 -8.26171875 1.41015625 C-4.99871503 -0.62428994 -3.72649352 -1.24216451 0 0 Z " fill="#168FC9" transform="translate(166,122)"/>
<path d="M0 0 C0.598125 0.226875 1.19625 0.45375 1.8125 0.6875 C1.4825 1.6775 1.1525 2.6675 0.8125 3.6875 C0.1525 3.6875 -0.5075 3.6875 -1.1875 3.6875 C-1.435 4.265 -1.6825 4.8425 -1.9375 5.4375 C-3.35433317 7.9877997 -5.06377537 9.70535701 -7.1875 11.6875 C-7.1875 10.0375 -7.1875 8.3875 -7.1875 6.6875 C-6.1975 6.6875 -5.2075 6.6875 -4.1875 6.6875 C-4.414375 6.089375 -4.64125 5.49125 -4.875 4.875 C-5.1875 2.6875 -5.1875 2.6875 -4 0.875 C-2.1875 -0.3125 -2.1875 -0.3125 0 0 Z " fill="#1279BA" transform="translate(152.1875,171.3125)"/>
<path d="M0 0 C3.0916909 2.52956528 3.90931332 5.22454612 5 9 C4.34 9 3.68 9 3 9 C3.33 10.65 3.66 12.3 4 14 C3.01 14 2.02 14 1 14 C0.12863375 10.51453502 0.1426322 8.42947121 1 5 C0.61432869 2.31850007 0.61432869 2.31850007 0 0 Z M1 10 C2 12 2 12 2 12 Z " fill="#2498D1" transform="translate(251,154)"/>
<path d="M0 0 C17.2193159 -0.48581142 17.2193159 -0.48581142 23 2 C24.26953125 4.078125 24.26953125 4.078125 25 6 C23.39566191 5.52140759 21.79153584 5.04210442 20.1875 4.5625 C18.84751953 4.16224609 18.84751953 4.16224609 17.48046875 3.75390625 C15.64526945 3.19612127 13.81966274 2.60655425 12 2 C9.94106379 1.77674186 7.87766347 1.59294241 5.8125 1.4375 C4.72582031 1.35371094 3.63914063 1.26992187 2.51953125 1.18359375 C1.68808594 1.12300781 0.85664063 1.06242188 0 1 C0 0.67 0 0.34 0 0 Z " fill="#1286C5" transform="translate(164,132)"/>
<path d="M0 0 C3.62613199 0.56959153 5.25517741 1.92374534 7.75 4.5625 C8.36359375 5.20316406 8.9771875 5.84382812 9.609375 6.50390625 C10.06828125 6.99761719 10.5271875 7.49132812 11 8 C10.67 8.99 10.34 9.98 10 11 C9.443125 10.360625 8.88625 9.72125 8.3125 9.0625 C5.77933439 6.80319013 4.31658576 6.36850953 1 6 C1.33 5.01 1.66 4.02 2 3 C1.34 2.67 0.68 2.34 0 2 C0 1.34 0 0.68 0 0 Z " fill="#1089C9" transform="translate(240,145)"/>
<path d="M0 0 C0.66 0.33 1.32 0.66 2 1 C1.67 2.32 1.34 3.64 1 5 C1.99 4.67 2.98 4.34 4 4 C4 4.66 4 5.32 4 6 C3.01 6.33 2.02 6.66 1 7 C0.34 6.67 -0.32 6.34 -1 6 C-1 5.34 -1 4.68 -1 4 C-1.94875 4.515625 -2.8975 5.03125 -3.875 5.5625 C-4.90625 6.036875 -5.9375 6.51125 -7 7 C-7.66 6.67 -8.32 6.34 -9 6 C-6.03 4.02 -3.06 2.04 0 0 Z " fill="#0D6FB4" transform="translate(148,153)"/>
<path d="M0 0 C2.11044382 3.16566573 2.75552077 5.51197415 3.625 9.1875 C3.88539063 10.27417969 4.14578125 11.36085937 4.4140625 12.48046875 C4.60742188 13.31191406 4.80078125 14.14335937 5 15 C2.48379469 13.74189735 2.19164364 12.69646845 1 10.1875 C0.67 9.50042969 0.34 8.81335938 0 8.10546875 C-0.33 7.41066406 -0.66 6.71585938 -1 6 C-1.66389899 4.66528641 -2.3297451 3.33153317 -3 2 C-2.34 2 -1.68 2 -1 2 C-0.67 1.34 -0.34 0.68 0 0 Z " fill="#2D74AD" transform="translate(208,174)"/>
<path d="M0 0 C-0.33 0.99 -0.66 1.98 -1 3 C-4.3 2.67 -7.6 2.34 -11 2 C-11 1.34 -11 0.68 -11 0 C-7.01803543 -1.05404945 -4.01804691 -0.84098656 0 0 Z " fill="#61B8EC" transform="translate(243,233)"/>
<path d="M0 0 C0 0.33 0 0.66 0 1 C-0.79664062 1.18175781 -1.59328125 1.36351562 -2.4140625 1.55078125 C-7.97591755 2.87019942 -13.04724965 4.11089563 -18 7 C-18 5.68 -18 4.36 -18 3 C-17.278125 2.87625 -16.55625 2.7525 -15.8125 2.625 C-13.02228141 2.10846577 -13.02228141 2.10846577 -10.6875 0.9375 C-6.99935045 -0.3490638 -3.89633439 -0.13207913 0 0 Z " fill="#0C68B0" transform="translate(128,183)"/>
<path d="M0 0 C0.66 0.99 1.32 1.98 2 3 C2.66 3 3.32 3 4 3 C5.0625 4.8125 5.0625 4.8125 6 7 C5.67 7.99 5.34 8.98 5 10 C4.01 9.67 3.02 9.34 2 9 C2.33 7.68 2.66 6.36 3 5 C1.02 5.99 1.02 5.99 -1 7 C-0.67 4.69 -0.34 2.38 0 0 Z " fill="#E4F7FD" transform="translate(256,181)"/>
<path d="M0 0 C0.33 0 0.66 0 1 0 C1 2.31 1 4.62 1 7 C1.99 7.33 2.98 7.66 4 8 C3.01 9.485 3.01 9.485 2 11 C2 12.32 2 13.64 2 15 C1.34 15 0.68 15 0 15 C-1.5111995 9.96266834 -0.64599773 5.11828973 0 0 Z " fill="#219AD7" transform="translate(247,179)"/>
<path d="M0 0 C0.86625 0.4640625 0.86625 0.4640625 1.75 0.9375 C3.84294184 1.92583364 5.74535275 2.5168613 8 3 C7.67 3.99 7.34 4.98 7 6 C6.67 5.67 6.34 5.34 6 5 C5.01 5.495 5.01 5.495 4 6 C2 4.6875 2 4.6875 0 3 C0 2.01 0 1.02 0 0 Z " fill="#057FD0" transform="translate(195,164)"/>
<path d="M0 0 C0.66 0 1.32 0 2 0 C1.34 1.98 0.68 3.96 0 6 C-1.65 6 -3.3 6 -5 6 C-4.67 4.35 -4.34 2.7 -4 1 C-2.02 1.495 -2.02 1.495 0 2 C0 1.34 0 0.68 0 0 Z " fill="#0974B8" transform="translate(102,196)"/>
<path d="M0 0 C1.60294922 0.01353516 1.60294922 0.01353516 3.23828125 0.02734375 C4.04652344 0.03894531 4.85476562 0.05054688 5.6875 0.0625 C5.6875 0.3925 5.6875 0.7225 5.6875 1.0625 C3.0475 1.0625 0.4075 1.0625 -2.3125 1.0625 C-2.3125 1.7225 -2.3125 2.3825 -2.3125 3.0625 C-5.2825 2.7325 -8.2525 2.4025 -11.3125 2.0625 C-11.3125 1.7325 -11.3125 1.4025 -11.3125 1.0625 C-7.47525828 0.15836327 -3.93747726 -0.04326898 0 0 Z " fill="#116CAF" transform="translate(166.3125,148.9375)"/>
<path d="M0 0 C0.33 0 0.66 0 1 0 C1.39222105 1.41199578 1.76311059 2.82992764 2.125 4.25 C2.33382813 5.03890625 2.54265625 5.8278125 2.7578125 6.640625 C3.04314411 9.4203071 2.44977894 10.65887549 1 13 C0.1276588 10.00519083 -0.10829766 7.36424089 -0.0625 4.25 C-0.05347656 3.45078125 -0.04445313 2.6515625 -0.03515625 1.828125 C-0.02355469 1.22484375 -0.01195312 0.6215625 0 0 Z " fill="#5EB8EA" transform="translate(265,211)"/>
<path d="M0 0 C-1.625 1.5625 -1.625 1.5625 -4 3 C-7.25 2.6875 -7.25 2.6875 -10 2 C-6.80505194 -1.19494806 -4.22040044 -1.35655728 0 0 Z " fill="#DDF1F9" transform="translate(126,185)"/>
<path d="M0 0 C2.475 0.495 2.475 0.495 5 1 C5.33 2.32 5.66 3.64 6 5 C4.35 4.67 2.7 4.34 1 4 C0.67 2.68 0.34 1.36 0 0 Z " fill="#F0F8F6" transform="translate(104,225)"/>
<path d="M0 0 C0.5534764 2.07553648 1 3.84365964 1 6 C0.38125 6.12375 -0.2375 6.2475 -0.875 6.375 C-3.19120832 6.87197356 -3.19120832 6.87197356 -5 9 C-4.42647107 5.12867972 -2.51295648 2.91827204 0 0 Z " fill="#1872B4" transform="translate(137,160)"/>
<path d="M0 0 C1.25 1.5625 1.25 1.5625 2 4 C0.93237266 6.57001015 -0.46544943 8.6530403 -2 11 C-3.13643966 7.59068103 -2.86747764 6.99664544 -1.5625 3.8125 C-1.13130859 2.73935547 -1.13130859 2.73935547 -0.69140625 1.64453125 C-0.46324219 1.10183594 -0.23507813 0.55914062 0 0 Z " fill="#1E85BF" transform="translate(139,144)"/>
<path d="M0 0 C1.98 0 3.96 0 6 0 C6.33 0.66 6.66 1.32 7 2 C4.03 2.66 1.06 3.32 -2 4 C-1.34 2.68 -0.68 1.36 0 0 Z " fill="#FCFCF2" transform="translate(150,140)"/>
<path d="M0 0 C0.33 0.99 0.66 1.98 1 3 C1.99 3.33 2.98 3.66 4 4 C3.01 4.99 2.02 5.98 1 7 C0.67 6.34 0.34 5.68 0 5 C-0.66 4.67 -1.32 4.34 -2 4 C-1.34 2.68 -0.68 1.36 0 0 Z " fill="#2591CA" transform="translate(246,191)"/>
<path d="M0 0 C1.65 0.33 3.3 0.66 5 1 C4.34 2.65 3.68 4.3 3 6 C2.67 5.01 2.34 4.02 2 3 C1.01 2.67 0.02 2.34 -1 2 C-0.67 1.34 -0.34 0.68 0 0 Z " fill="#EAF4F8" transform="translate(138,136)"/>
</svg>
