<svg width="40" height="40" viewBox="0 0 40 40" fill="none" xmlns="http://www.w3.org/2000/svg">
  <!-- Cloud Icon - Very Large -->
  <path d="M5 32C1.5 32 -1 29.5 -1 26C-1 22.5 1.5 20 5 20C5.9 17.2 8.3 15.2 11 15.2C13.7 15.2 16.1 17.2 17 20C20.5 20 23 22.5 23 26C23 29.5 20.5 32 17 32H5Z" fill="#4A90E2"/>
  <path d="M7 26C7 23.2 9.2 21 12 21C12.9 19.4 14.5 18.3 16 18.3C17.5 18.3 19.1 19.4 20 21C22.8 21 25 23.2 25 26C25 28.8 22.8 31 20 31H12C9.2 31 7 28.8 7 26Z" fill="#357ABD" opacity="0.8"/>
</svg>
